HIERARCHY
ROOT root
{
	OFFSET 0.000000 0.000000 0.000000
	CHANNELS 6 Xposition Yposition Zposition Zrotation Yrotation Xrotation
	JOINT lhip
	{
		OFFSET 0.058581 -0.082280 -0.017664
		CHANNELS 3 Zrotation Yrotation Xrotation
		JOINT lknee
		{
			OFFSET 0.043451 -0.386469 0.008037
			CHANNELS 3 Zrotation Yrotation Xrotation
			JOINT lankle
			{
				OFFSET -0.014790 -0.426874 -0.037428
				CHANNELS 3 Zrotation Yrotation Xrotation
				JOINT ltoe
				{
					OFFSET 0.041054 -0.060286 0.122042
					CHANNELS 3 Zrotation Yrotation Xrotation
					End Site
					{
						OFFSET 0.000000 0.000000 0.000000
					}
				}
			}
		}
	}
	JOINT rhip
	{
		OFFSET -0.060310 -0.090513 -0.013543
		CHANNELS 3 Zrotation Yrotation Xrotation
		JOINT rknee
		{
			OFFSET -0.043257 -0.383688 -0.004843
			CHANNELS 3 Zrotation Yrotation Xrotation
			JOINT rankle
			{
				OFFSET 0.019056 -0.420046 -0.034562
				CHANNELS 3 Zrotation Yrotation Xrotation
				JOINT rtoe
				{
					OFFSET -0.034840 -0.062106 0.130323
					CHANNELS 3 Zrotation Yrotation Xrotation
					End Site
					{
						OFFSET 0.000000 0.000000 0.000000
					}
				}
			}
		}
	}
	JOINT lowerback
	{
		OFFSET 0.004439 0.124404 -0.038385
		CHANNELS 3 Zrotation Yrotation Xrotation
		JOINT upperback
		{
			OFFSET 0.004488 0.137956 0.026820
			CHANNELS 3 Zrotation Yrotation Xrotation
			JOINT chest
			{
				OFFSET -0.002265 0.056032 0.002855
				CHANNELS 3 Zrotation Yrotation Xrotation
				JOINT lowerneck
				{
					OFFSET -0.013390 0.211636 -0.033468
					CHANNELS 3 Zrotation Yrotation Xrotation
					JOINT upperneck
					{
						OFFSET 0.010113 0.088937 0.050410
						CHANNELS 3 Zrotation Yrotation Xrotation
						End Site
						{
							OFFSET 0.000000 0.000000 0.000000
						}
					}
				}
				JOINT lclavicle
				{
					OFFSET 0.071702 0.114000 -0.018898
					CHANNELS 3 Zrotation Yrotation Xrotation
					JOINT lshoulder
					{
						OFFSET 0.122921 0.045205 -0.019046
						CHANNELS 3 Zrotation Yrotation Xrotation
						JOINT lelbow
						{
							OFFSET 0.255332 -0.015649 -0.022946
							CHANNELS 3 Zrotation Yrotation Xrotation
							JOINT lwrist
							{
								OFFSET 0.265709 0.012698 -0.007375
								CHANNELS 3 Zrotation Yrotation Xrotation
								End Site
								{
									OFFSET 0.000000 0.000000 0.000000
								}
							}
						}
					}
				}
				JOINT rclavicle
				{
					OFFSET -0.082954 0.112472 -0.023707
					CHANNELS 3 Zrotation Yrotation Xrotation
					JOINT rshoulder
					{
						OFFSET -0.113228 0.046853 -0.008472
						CHANNELS 3 Zrotation Yrotation Xrotation
						JOINT relbow
						{
							OFFSET -0.260127 -0.014369 -0.031269
							CHANNELS 3 Zrotation Yrotation Xrotation
							JOINT rwrist
							{
								OFFSET -0.269108 0.006794 -0.006027
								CHANNELS 3 Zrotation Yrotation Xrotation
								End Site
								{
									OFFSET 0.000000 0.000000 0.000000
								}
							}
						}
					}
				}
			}
		}
	}
}
MOTION
Frames: 16
Frame Time: 0.033333
-0.188010 -0.862351 0.990082 -178.419922 1.754589 89.437919 3.524231 5.163994 -2.314973 -3.757552 2.069061 6.744266 3.131866 12.448168 -10.158084 0.000000 -0.000000 0.000000 -2.192522 -8.496445 -2.270454 -1.104641 -8.345944 10.858100 0.970980 -10.328188 -11.806821 0.000000 -0.000000 0.000000 -0.791451 4.297360 10.178081 1.339995 -2.965155 4.134034 1.092583 -0.065601 -6.084557 -1.528509 3.786860 0.610630 4.264968 4.002137 -2.581798 -25.598025 -11.147758 0.990203 -58.824767 -0.663681 18.029313 6.886092 -22.961323 -7.547332 1.721148 -9.956278 0.116494 23.802491 13.333669 3.988230 55.207062 -1.087702 13.981773 -12.391176 26.815809 -5.823480 5.890400 11.805639 -0.930005 
-0.183538 -0.862820 0.990266 -178.431164 1.599776 89.204193 3.600029 5.206453 -1.987054 -3.588843 1.948274 6.591479 2.992825 12.323328 -10.057965 0.000000 -0.000000 0.000000 -2.042485 -7.883635 -2.109649 -1.197219 -8.250783 11.115887 0.851386 -10.440038 -12.325814 0.000000 -0.000000 0.000000 -0.932508 4.146325 10.155599 1.446030 -2.986367 4.523643 1.018946 0.006959 -6.178185 -1.814936 3.787427 0.426934 4.292988 3.549960 -2.409830 -25.372276 -11.046997 0.944264 -59.026457 -0.757369 17.626427 6.925866 -23.376746 -7.462662 0.189459 -10.441256 0.823409 24.405235 13.303742 4.178914 54.320040 -0.619655 13.218814 -12.153558 26.372623 -5.724269 8.654769 13.617707 1.541118 
-0.178297 -0.863685 0.990519 -178.144413 1.505256 88.966377 3.816243 5.034066 -1.826676 -3.471488 1.738164 6.602476 2.666778 12.125745 -9.887269 0.000000 -0.000000 0.000000 -1.857395 -7.607941 -1.766569 -1.063610 -8.507725 11.100173 0.538072 -10.740417 -12.596896 0.000000 -0.000000 0.000000 -0.934566 3.899816 10.523018 1.412211 -2.998902 4.239002 1.079978 -0.061887 -5.961467 -2.097690 3.702130 0.220919 4.172903 3.080448 -2.147109 -25.245291 -10.954521 1.106640 -59.218100 -0.843565 17.387746 7.132971 -23.858624 -6.807470 -0.315673 -10.559096 0.688845 24.446658 13.116255 4.241642 54.140578 -0.650247 12.969618 -12.555221 26.016243 -5.185498 9.566132 13.761571 1.872469 
-0.169926 -0.864763 0.991061 -177.708130 1.435457 88.498422 4.186342 4.769748 -1.462799 -3.303394 1.065940 6.544834 2.232034 11.876844 -9.920044 0.000000 -0.000000 0.000000 -1.579070 -7.325936 -0.723089 -0.603784 -9.123351 10.233350 0.238715 -11.249138 -12.692264 0.000000 -0.000000 0.000000 -0.697411 3.463445 11.197760 1.310859 -2.940675 3.926960 1.119150 -0.093545 -5.774420 -2.529933 3.377284 0.262899 4.011522 2.356980 -1.962798 -25.335581 -10.764558 1.213051 -59.389223 -1.026983 17.134076 7.423973 -24.104604 -6.124059 -1.422494 -10.769598 0.384985 24.180250 12.823466 4.052828 54.201433 -1.106383 12.745577 -12.823054 25.308874 -4.547558 11.335941 13.115076 1.284645 
-0.167163 -0.865435 0.991147 -177.633360 1.391202 88.501390 4.247880 4.714512 -1.616846 -3.181302 0.906216 6.741662 2.089263 11.843248 -10.111578 0.000000 -0.000000 0.000000 -1.517869 -7.375946 -0.633083 -0.438160 -9.252514 10.017321 0.154424 -11.291608 -12.674941 0.000000 -0.000000 0.000000 -0.581625 3.430620 11.241736 1.296807 -2.933980 3.894440 1.071578 -0.094141 -5.784511 -2.756533 3.312682 0.248412 3.931965 2.143163 -1.914351 -25.396047 -10.729671 1.297525 -59.454260 -1.104651 17.098309 7.440341 -24.072355 -6.104714 -1.518740 -10.718614 0.336634 24.200448 12.716827 4.044978 54.108507 -1.303896 12.681840 -12.934253 25.183683 -4.482369 11.516795 13.014292 1.178732 
-0.162122 -0.866860 0.991086 -177.436857 1.224115 88.603871 4.308925 4.491731 -2.138465 -3.153969 0.517797 7.383723 1.634614 11.803821 -10.586538 0.000000 -0.000000 0.000000 -1.450566 -7.298385 -0.618104 -0.210029 -9.339380 9.732330 0.034773 -11.391881 -12.756693 0.000000 -0.000000 0.000000 -0.338555 3.342812 11.182863 1.239934 -2.970689 3.900391 0.907752 -0.146930 -5.808554 -3.193507 3.222082 0.081645 3.925558 1.724837 -1.781880 -25.419690 -10.684484 1.395773 -59.720595 -1.179457 17.064533 7.593405 -23.775605 -6.228050 -1.754787 -10.826693 0.279879 24.140353 12.519100 4.049317 53.969435 -1.468124 12.341338 -12.902099 24.653999 -4.475613 11.665010 13.267760 1.146985 
-0.158161 -0.868034 0.991524 -177.082556 0.991085 88.480723 4.261714 3.908514 -2.636941 -3.317635 0.010831 8.517446 1.444843 11.626354 -10.988435 0.000000 -0.000000 0.000000 -1.487810 -6.859257 -0.241645 -0.038289 -9.361018 9.282112 -0.191094 -11.654718 -13.025673 0.000000 -0.000000 0.000000 -0.069464 3.121446 11.451509 1.101859 -2.952639 3.782077 0.746495 -0.201798 -5.807951 -3.331443 3.138573 -0.233111 3.726047 1.842375 -1.217607 -25.677915 -10.536567 1.396189 -59.806380 -1.292555 17.148002 7.520461 -23.393752 -6.142137 -1.598211 -10.792266 0.170198 24.099645 12.200984 3.855186 53.816796 -1.655953 12.187296 -12.925920 23.971209 -4.691191 11.631092 13.126332 1.039699 
-0.154944 -0.869113 0.992108 -176.809021 0.671321 88.292487 4.354911 3.067930 -3.235042 -4.157988 -0.838474 10.261251 1.417369 11.043656 -11.801315 0.000000 -0.000000 0.000000 -1.692620 -6.773585 0.051292 0.124779 -9.448033 9.122380 -0.537344 -11.822783 -13.163986 0.000000 -0.000000 0.000000 0.078936 3.082687 11.800963 0.987591 -3.010540 3.659751 0.616847 -0.307702 -5.867666 -3.537532 3.154509 -0.409075 3.797421 1.913354 -0.871735 -25.910846 -10.511075 1.521635 -59.995129 -1.453526 17.085787 7.293234 -22.772140 -6.168242 -1.422850 -10.693457 -0.028042 24.177453 11.958080 3.717277 53.527627 -1.749591 11.844504 -12.918501 23.122984 -5.025283 11.684549 13.060490 1.245186 
-0.152464 -0.869688 0.992475 -176.668986 0.522181 87.936836 4.670008 2.354916 -3.902649 -4.855164 -1.419946 12.519095 -0.005261 11.258469 -14.360110 0.000000 -0.000000 0.000000 -1.802850 -6.863155 0.652581 0.351600 -9.390101 8.688604 -0.688340 -11.952564 -13.207986 0.000000 -0.000000 0.000000 0.297632 3.134113 12.205402 0.977655 -3.094845 3.467363 0.585141 -0.339955 -5.661674 -3.647228 2.933339 -0.864985 3.567557 1.953270 -0.284521 -26.267095 -10.738036 1.785472 -60.209488 -1.752010 16.867135 6.990546 -22.091511 -6.308817 -0.566484 -10.675484 -0.913195 24.049682 11.936157 3.793010 53.265759 -1.690339 11.424047 -12.951880 22.247221 -5.084632 11.257494 13.033886 0.659072 
-0.151363 -0.869338 0.992397 -176.722161 0.487412 87.513517 4.703087 1.361931 -4.235532 -5.217011 -2.887289 14.213322 0.349349 10.536529 -14.065861 0.000000 -0.000000 0.000000 -1.826008 -7.030094 1.375705 0.392600 -9.286077 8.222867 -1.047577 -11.897221 -13.059610 0.000000 -0.000000 0.000000 0.696612 3.343400 12.440935 0.971240 -3.116139 3.593289 0.516742 -0.373039 -5.722253 -3.883928 2.632545 -0.753198 3.658983 2.044310 -0.130416 -26.604793 -11.018019 2.027064 -60.556453 -1.981078 16.644779 7.070362 -21.409193 -7.131978 -0.075082 -10.738589 -1.589756 23.803692 11.988336 3.951045 53.135421 -1.782924 11.052086 -13.213719 21.374539 -5.617039 11.214300 13.078466 0.435686 
-0.151579 -0.867581 0.991823 -176.910192 0.621592 86.949222 4.720074 1.116890 -3.866097 -4.759232 -3.088748 14.643737 0.321889 10.525184 -13.461696 0.000000 -0.000000 0.000000 -1.754704 -6.997812 2.366363 0.426195 -9.445139 7.752308 -1.213206 -11.862653 -12.850543 0.000000 -0.000000 0.000000 1.211841 3.330820 12.552317 0.944609 -2.960720 3.772475 0.432012 -0.308150 -5.755819 -4.003197 2.470697 -0.275102 3.784696 2.007251 -0.150493 -26.920702 -11.259486 2.170651 -60.895904 -2.164903 16.186221 7.391101 -20.900051 -8.640859 0.304004 -10.774966 -2.411428 23.553990 12.103065 4.097852 52.939802 -1.991749 10.727324 -13.357434 20.584694 -6.165812 11.045170 13.092130 0.505466 
-0.152897 -0.864988 0.990851 -177.514600 0.684682 86.612951 4.775031 1.490744 -2.824512 -4.454369 -2.312815 13.773216 0.305743 10.737993 -13.258642 0.000000 -0.000000 0.000000 -1.759536 -6.687712 3.020875 0.275841 -9.082250 7.414381 -1.119388 -11.661426 -12.921340 0.000000 -0.000000 0.000000 1.428433 3.298447 12.139675 1.018005 -2.634981 4.158836 0.342322 -0.117770 -5.853879 -3.829712 2.416667 0.253114 3.594201 2.005660 -0.059204 -27.278029 -11.070900 2.140639 -60.880471 -2.240619 15.971112 7.358434 -20.927723 -9.131216 0.599411 -10.490262 -2.460705 23.559926 12.088693 4.211855 52.488466 -2.008472 10.662524 -13.365804 19.775056 -6.552775 10.803834 12.945517 0.790207 
-0.154611 -0.862551 0.990078 -178.099336 0.749749 86.427399 4.687363 2.009885 -1.456057 -4.231189 -2.019086 11.993992 0.793715 10.682013 -12.615833 0.000000 -0.000000 0.000000 -1.835514 -6.549778 3.367939 0.209544 -9.026997 7.257141 -0.880113 -11.358486 -12.793518 0.000000 -0.000000 0.000000 1.528840 3.184554 11.722679 1.117746 -2.407191 4.269176 0.323804 0.085481 -5.910160 -3.717858 2.519062 0.816785 3.468009 2.147682 -0.009597 -27.580474 -10.715896 2.123422 -60.643021 -2.185468 16.013862 7.141458 -21.262550 -8.475615 0.285761 -10.643658 -1.980660 23.700755 11.943002 4.225759 52.109015 -1.944030 10.693672 -13.646683 19.133973 -6.726608 11.052983 12.781841 0.863597 
-0.156305 -0.860832 0.989757 -178.463967 0.781669 86.422139 4.448007 2.511786 -0.506952 -3.853429 -2.159654 10.557693 1.126057 10.738569 -12.156429 0.000000 -0.000000 0.000000 -1.931463 -6.725058 3.416256 0.165594 -9.107370 7.267416 -0.690466 -11.176169 -12.443362 0.000000 -0.000000 0.000000 1.518867 3.141231 11.313342 1.242780 -2.451687 4.303116 0.365921 0.148925 -6.011018 -3.670833 2.587613 1.305538 3.426040 2.319254 -0.168784 -27.582472 -10.508655 2.102735 -60.424675 -1.971911 16.370117 6.888974 -21.639462 -7.364049 -0.205865 -10.687524 -1.006021 23.721998 11.900163 4.204927 52.114896 -1.866962 10.675675 -14.067352 18.784125 -7.000445 11.208983 12.678049 0.725568 
-0.157736 -0.860307 0.989454 -178.684033 0.742778 86.732850 4.327155 2.838602 -0.272038 -3.773418 -2.234725 9.603818 1.258788 10.623673 -11.863158 0.000000 -0.000000 0.000000 -1.976793 -7.178629 3.077065 -0.034098 -8.723121 7.219725 -0.481623 -11.003023 -12.299309 0.000000 -0.000000 0.000000 1.372501 3.350826 10.632329 1.414552 -2.783657 4.485528 0.448854 0.063030 -6.227918 -3.719137 2.668033 1.573444 3.493134 2.352688 -0.268837 -27.438971 -10.578346 2.239474 -60.219571 -1.808666 16.772461 6.793508 -21.760371 -6.527669 -0.270686 -10.938946 -0.246200 23.882096 11.874829 4.267491 52.242908 -1.752402 10.567686 -14.592632 18.804411 -7.500028 10.735832 12.606485 0.517903 
-0.159158 -0.860037 0.989387 -178.713324 0.764999 87.002504 4.391056 3.122972 -0.156669 -3.939479 -2.275470 8.817652 1.245524 10.394087 -11.543879 0.000000 -0.000000 0.000000 -1.967151 -7.530627 2.831408 -0.177284 -8.568637 7.135025 -0.270209 -10.835951 -12.172941 0.000000 -0.000000 0.000000 1.255551 3.496849 10.053906 1.598121 -3.091278 4.650477 0.569796 -0.072985 -6.420083 -3.692947 2.785014 1.973367 3.617731 2.386710 -0.517505 -27.167962 -10.946440 2.420986 -60.097149 -1.601301 17.096198 6.756705 -21.693379 -6.086786 -0.549425 -10.935097 0.285728 23.953646 11.868465 4.387518 52.531906 -1.705408 10.383258 -14.984030 19.333053 -8.260472 10.594383 12.698715 0.052379 
